# AST/ASF file generated using VICON BodyLanguage
# -----------------------------------------------
:version 1.10
:name VICON
:units
  mass 1.0
  length 0.45
  angle deg
:documentation
   .ast/.asf automatically generated from VICON data using
   VICON BodyBuilder and BodyLanguage model FoxedUp or BRILLIANT.MOD
:root
   order TX TY TZ RX RY RZ
   axis XYZ
   position 0 0 0  
   orientation 0 0 0 
:bonedata
  begin
     id 1 
     name lhipjoint
     direction 0.630082 -0.636569 0.44472 
     length 2.82754 
     axis 0 0 0  XYZ
  end
  begin
     id 2 
     name lfemur
     direction 0.34202 -0.939693 0  
     length 7.26371  
     axis 0 0 20  XYZ
    dof rx ry rz
    limits (-160.0 20.0)
           (-70.0 70.0)
           (-60.0 70.0)
  end
  begin
     id 3 
     name ltibia
     direction 0.34202 -0.939693 0   
     length 7.88616   
     axis 0 0 20   XYZ
    dof rx
    limits (-10.0 170.0)
  end
  begin
     id 4 
     name lfoot
     direction 0.0603448 -0.165796 0.984312   
     length 1.77861   
     axis -90 7.62852e-016 20   XYZ
    dof rx rz
    limits (-45.0 90.0)
           (-70.0 20.0)
  end
  begin
     id 5 
     name ltoes
     direction 1.53577e-011 -4.21876e-011 1   
     length 0.902235   
     axis -90 7.62852e-016 20   XYZ
    dof rx
    limits (-90.0 20.0)
  end
  begin
     id 6 
     name rhipjoint
     direction -0.656778 -0.61817 0.431866   
     length 2.9117  
     axis 0 0 0  XYZ 
  end
  begin
     id 7 
     name rfemur
     direction -0.34202 -0.939693 0   
     length 6.81603   
     axis 0 0 -20   XYZ
    dof rx ry rz
    limits (-160.0 20.0)
           (-70.0 70.0)
           (-70.0 60.0)
  end
  begin
     id 8 
     name rtibia
     direction -0.34202 -0.939693 0   
     length 8.05997   
     axis 0 0 -20   XYZ
    dof rx
    limits (-10.0 170.0)
 end
 begin
     id 9 
     name rfoot
     direction -0.0862404 -0.236944 0.967688   
     length 1.84899  
     axis -90 -7.62852e-016 -20   XYZ
    dof rx rz
    limits (-45.0 90.0)
           (-20.0 70.0)
  end
  begin
     id 10 
     name rtoes
     direction -1.53561e-011 -4.21798e-011 1   
     length 0.931579   
     axis -90 -7.62852e-016 -20   XYZ
    dof rx
    limits (-90.0 20.0)
  end
  begin
     id 11 
     name lowerback
     direction -0.0110203 0.991769 -0.127564   
     length 2.05686   
     axis 0 0 0   XYZ
    dof rx ry rz
    limits (-20.0 45.0)
           (-30.0 30.0)
           (-30.0 30.0)
  end
  begin
     id 12 
     name upperback
     direction 0.0109719 0.99993 -0.00432479   
     length 2.06234   
     axis 0 0 0   XYZ
    dof rx ry rz
    limits (-20.0 45.0)
           (-30.0 30.0)
           (-30.0 30.0)
  end
  begin
     id 13 
     name thorax
     direction 0.0173308 0.998351 0.0547306   
     length 2.09856   
     axis 0 0 0   XYZ
    dof rx ry rz
    limits (-20.0 45.0)
           (-30.0 30.0)
           (-30.0 30.0)
  end
  begin
     id 14 
     name lowerneck
     direction -0.0311736 0.989033 0.144366   
     length 1.98151   
     axis 0 0 0   XYZ
    dof rx ry rz
    limits (-20.0 45.0)
           (-30.0 30.0)
           (-30.0 30.0)
  end
  begin
     id 15 
     name upperneck
     direction 0.0421057 0.975772 -0.214698   
     length 2.01457   
     axis 0 0 0   XYZ
    dof rx ry rz
    limits (-20.0 45.0)
           (-30.0 30.0)
           (-30.0 30.0)
  end
  begin
     id 16
     name head
     direction 0.0136911 0.995958 -0.0887718  
     length 2.03562  
     axis 0 0 0   XYZ
    dof rx ry rz
    limits (-20.0 45.0)
           (-30.0 30.0)
           (-30.0 30.0)
  end
  begin
     id 17 
     name lclavicle
     direction 0.915335 0.396201 0.0720134  
     length 4.16217  
     axis 0 0 0   XYZ
    dof ry rz
    limits (-20.0 10.0)
           (0.0 20.0)
  end
  begin
     id 18 
     name lhumerus
     direction 1 -4.48965e-011 6.383e-018   
     length 4.93042   
     axis -180 -30 -90   XYZ
    dof rx ry rz
    limits (-60.0 90.0)
           (-90.0 90.0)
           (-90.0 90.0)
  end
  begin
     id 19
     name lradius
     direction 1 -4.48972e-011 8.8689e-027   
     length 3.68177   
     axis -180 -30 -90   XYZ
    dof rx
    limits (-10.0 170.0)
  end
  begin
     id 20
     name lwrist
     direction 1 -4.48953e-011 1.17971e-026   
     length 1.84089   
     axis -7.69454e-015 90 90   XYZ
    dof ry
    limits (-180.0 0.0)
 end
  begin
     id 21 
     name lhand
     direction 1 -4.49027e-011 2.35802e-026   
     length 0.721479   
     axis -1.50533e-014 90 90   XYZ
    dof rx rz
    limits (-90.0 90.0)
           (-45.0 45.0)
  end
  begin
     id 22 
     name lfingers
     direction 1 -4.48915e-011 4.72027e-026   
     length 0.581675   
     axis -3.01059e-014 90 90   XYZ
    dof rx
    limits (0.0 90.0)
  end
  begin
     id 23
     name lthumb
     direction 0.707107 -6.34948e-011 0.707107   
     length 0.835172   
     axis -90 45 -5.12164e-014   XYZ
    dof rx rz
    limits (-45.0 45.0)
           (-45.0 45.0)
  end
  begin
     id 24 
     name rclavicle
     direction -0.882781 0.469197 0.0234974   
     length 3.95647  
     axis 0 0 0   XYZ 
    dof ry rz
    limits (-10.0 20.0)
           (-20.0 0.0)
  end
  begin
     id 25 
     name rhumerus
     direction -1 -4.48965e-011 -1.54906e-018  
     length 5.07905   
     axis -180 30 90   XYZ
    dof rx ry rz
    limits (-90.0 60.0)
           (-90.0 90.0)
           (-90.0 90.0)
  end
  begin
     id 26 
     name rradius
     direction -1 -4.48972e-011 5.47489e-027   
     length 3.54394   
     axis -180 30 90   XYZ
    dof rx
    limits (-10.0 170.0)
  end
  begin
     id 27 
     name rwrist
     direction -1 -4.48955e-011 1.17969e-026   
     length 1.77197   
     axis -7.69454e-015 -90 -90   XYZ
    dof ry
    limits (-180.0 0.0)
  end
  begin
     id 28
     name rhand
     direction -1 -4.48982e-011 2.35888e-026   
     length 0.681156   
     axis -1.50533e-014 -90 -90   XYZ
    dof rx rz
    limits (-90.0 90.0)
           (-45.0 45.0)
  end
  begin
     id 29
     name rfingers
     direction -1 -4.48955e-011 4.71877e-026   
     length 0.549165   
     axis -3.01059e-014 -90 -90   XYZ
    dof rx
    limits (0.0 90.0)
  end
  begin
     id 30
     name rthumb
     direction -0.707107 -6.3491e-011 0.707107   
     length 0.788495   
     axis -90 -45 5.12164e-014   XYZ
    dof rx rz
    limits (-45.0 45.0)
           (-45.0 45.0)
  end
:hierarchy
  begin
    root lhipjoint rhipjoint lowerback
    lhipjoint lfemur
    lfemur ltibia
    ltibia lfoot
    lfoot ltoes
    rhipjoint rfemur
    rfemur rtibia
    rtibia rfoot
    rfoot rtoes
    lowerback upperback
    upperback thorax
    thorax lowerneck lclavicle rclavicle
    lowerneck upperneck
    upperneck head
    lclavicle lhumerus
    lhumerus lradius
    lradius lwrist
    lwrist lhand lthumb
    lhand lfingers
    rclavicle rhumerus
    rhumerus rradius
    rradius rwrist
    rwrist rhand rthumb
    rhand rfingers
  end

#!OML:ASF H:\Bending\Project 1\Capture day 1\Session 1\Subject.ASF
:FULLY-SPECIFIED
:DEGREES
1
root -11.7664 18.1386 -17.605 -89.1036 86.2238 -93.4584
lowerback 9.19436 0.302699 0.323318
upperback -0.992529 0.601745 2.24694
thorax -6.2279 0.335404 2.08422
lowerneck -21.8783 -5.48343 -7.33763
upperneck 33.5021 -7.0203 6.55504
head 16.1799 -2.66755 2.76059
rclavicle -1.63997e-015 -2.66371e-014
rhumerus -33.104 -16.9143 -72.8937
rradius 32.9969
rwrist 23.3536
rhand -17.9509 -13.3458
rfingers 7.12502
rthumb 8.31769 -43.162
lclavicle -1.63997e-015 -2.66371e-014
lhumerus -32.8178 7.38191 81.814
lradius 26.4257
lwrist 13.2216
lhand -30.8352 9.67121
lfingers 7.12502
lthumb -4.12397 39.611
rfemur 1.19541 -2.57186 14.7303
rtibia -9.54166e-015
rfoot -10.4566 -19.1335
rtoes -8.20624
lfemur -13.9726 -7.42141 -12.1359
ltibia 24.7742
lfoot -18.7862 1.95506
ltoes 22.7995
2
root -11.7122 18.1168 -17.5986 -87.4589 86.1631 -91.6686
lowerback 9.11307 0.363774 0.425216
upperback -1.02118 0.688636 2.17872
thorax -6.2127 0.372964 1.94269
lowerneck -21.8541 -5.51488 -7.38916
upperneck 33.5781 -7.0445 6.54591
head 16.2168 -2.68382 2.76366
rclavicle -2.29845e-015 -6.95746e-015
rhumerus -33.1931 -16.3884 -73.1906
rradius 32.9124
rwrist 23.201
rhand -17.9508 -13.3511
rfingers 7.12502
rthumb 8.31785 -43.1674
lclavicle -2.29845e-015 -6.95746e-015
lhumerus -32.612 6.94484 82.0304
lradius 27.1507
lwrist 13.7671
lhand -30.86 9.64618
lfingers 7.12502
lthumb -4.14792 39.5855
rfemur 0.939267 -2.45356 14.7637
rtibia 1.59028e-014
rfoot -10.5646 -18.2599
rtoes -8.98219
lfemur -13.8754 -7.2527 -12.1004
ltibia 25.3547
lfoot -19.1549 1.84052
ltoes 21.9165
3
root -11.6595 18.0971 -17.584 -85.9091 86.147 -89.9716
lowerback 9.03898 0.429167 0.472558
upperback -1.04897 0.774483 2.10309
thorax -6.20074 0.411657 1.82456
lowerneck -21.8677 -5.54863 -7.50074
upperneck 33.6678 -7.06552 6.58777
head 16.2753 -2.69852 2.80043
rclavicle -4.26145e-015 7.7526e-015
rhumerus -33.2704 -15.6357 -73.5819
rradius 32.8018
rwrist 22.9283
rhand -17.9281 -13.4351
rfingers 7.12502
rthumb 8.33977 -43.2505
lclavicle -4.26145e-015 7.7526e-015
lhumerus -32.4023 6.60998 82.2295
lradius 27.8685
lwrist 14.2232
lhand -30.9093 9.58923
lfingers 7.12502
lthumb -4.19558 39.5277
rfemur 0.813519 -2.33544 14.7716
rtibia -5.56597e-015
rfoot -10.4924 -16.863
rtoes -6.45573
lfemur -13.6772 -7.05622 -12.0873
ltibia 25.717
lfoot -19.4013 1.76897
ltoes 20.8219
4
root -11.6085 18.0799 -17.5611 -84.3709 86.2023 -88.2818
lowerback 8.97408 0.504168 0.435496
upperback -1.07548 0.862891 2.01704
thorax -6.19339 0.454184 1.74292
lowerneck -21.9072 -5.58719 -7.64838
upperneck 33.7623 -7.08273 6.64229
head 16.3449 -2.71428 2.84981
rclavicle -2.48481e-017 2.28602e-015
rhumerus -33.3341 -14.8891 -73.9911
rradius 32.6395
rwrist 22.7447
rhand -17.847 -13.5944
rfingers 7.12502
rthumb 8.41799 -43.4067
lclavicle -2.48481e-017 2.28602e-015
lhumerus -32.1909 6.34312 82.4282
lradius 28.5639
lwrist 14.5907
lhand -30.9584 9.51338
lfingers 7.12502
lthumb -4.24299 39.4509
rfemur 0.832942 -2.21726 14.7326
rtibia -4.77083e-015
rfoot -10.0747 -15.3151
rtoes -1.52392
lfemur -13.447 -6.85049 -12.126
ltibia 26.0095
lfoot -19.6088 1.6938
ltoes 19.6832
5
root -11.5582 18.0652 -17.5308 -82.8299 86.3495 -86.5873
lowerback 8.90944 0.587612 0.309514
upperback -1.10229 0.951196 1.91172
thorax -6.18742 0.499196 1.69141
lowerneck -21.9564 -5.62479 -7.79058
upperneck 33.853 -7.08893 6.66761
head 16.4121 -2.72922 2.8874
rclavicle -5.78339e-015 -7.35503e-015
rhumerus -33.3799 -14.4028 -74.3312
rradius 32.3704
rwrist 22.8648
rhand -17.7065 -13.775
rfingers 7.12502
rthumb 8.55358 -43.5818
lclavicle -5.78339e-015 -7.35503e-015
lhumerus -31.9904 6.0872 82.6413
lradius 29.2371
lwrist 14.8936
lhand -30.9877 9.43745
lfingers 7.12502
lthumb -4.27122 39.3744
rfemur 0.987838 -2.10693 14.6346
rtibia -7.95139e-015
rfoot -9.29997 -14.0442
rtoes 3.77229
lfemur -13.1437 -6.66963 -12.2421
ltibia 26.1505
lfoot -19.7578 1.62387
ltoes 18.7254
6
root -11.5078 18.0527 -17.4946 -81.4459 86.5877 -85.0504
lowerback 8.83455 0.669006 0.123754
upperback -1.13055 1.02822 1.77893
thorax -6.17736 0.540059 1.64665
lowerneck -22.0014 -5.65032 -7.89048
upperneck 33.9325 -7.0738 6.64006
head 16.4653 -2.73795 2.89821
rclavicle -4.44159e-015 -1.04362e-014
rhumerus -33.4056 -14.2762 -74.5649
rradius 31.9474
rwrist 23.3447
rhand -17.5538 -13.9103
rfingers 7.12502
rthumb 8.70094 -43.7109
lclavicle -4.44159e-015 -1.04362e-014
lhumerus -31.8134 5.81009 82.8678
lradius 29.8863
lwrist 15.1504
lhand -30.9929 9.37363
lfingers 7.12502
lthumb -4.27629 39.3105
rfemur 1.2548 -2.02251 14.4852
rtibia 3.18055e-015
rfoot -8.35979 -13.2988
rtoes 7.31845
lfemur -12.7786 -6.55848 -12.4402
ltibia 26.1627
lfoot -19.8711 1.56189
ltoes 18.1463
7
root -11.4564 18.0417 -17.4545 -80.629 86.8889 -84.0783
lowerback 8.74808 0.731695 -0.0659582
upperback -1.15905 1.07823 1.61813
thorax -6.15978 0.567195 1.57884
lowerneck -22.0357 -5.65387 -7.93459
upperneck 33.9943 -7.03054 6.56564
head 16.4985 -2.73514 2.88378
rclavicle 8.34896e-015 5.96354e-016
rhumerus -33.4158 -14.3407 -74.7471
rradius 31.3722
rwrist 23.9806
rhand -17.4692 -13.9744
rfingers 7.12502
rthumb 8.78258 -43.7717
lclavicle 8.34896e-015 5.96354e-016
lhumerus -31.6617 5.54015 83.0886
lradius 30.4902
lwrist 15.3511
lhand -30.985 9.31864
lfingers 7.12502
lthumb -4.2687 39.2556
rfemur 1.60899 -1.987 14.3125
rtibia -3.97569e-015
rfoot -7.50107 -13.0884
rtoes 8.00469
lfemur -12.3695 -6.55997 -12.6935
ltibia 26.0873
lfoot -19.9711 1.52302
ltoes 18.0232
8
root -11.404 18.0316 -17.4119 -81.0362 87.2032 -84.3202
lowerback 8.66175 0.760058 -0.199344
upperback -1.18399 1.08816 1.44092
thorax -6.13595 0.572424 1.46787
lowerneck -22.0607 -5.63256 -7.93892
upperneck 34.0337 -6.96028 6.47563
head 16.5121 -2.71887 2.86044
rclavicle 2.61215e-015 5.96354e-015
rhumerus -33.4158 -14.1838 -75.0215
rradius 30.7088
rwrist 24.3456
rhand -17.5253 -14.0133
rfingers 7.12502
rthumb 8.7284 -43.8128
lclavicle 2.61215e-015 5.96354e-015
lhumerus -31.5217 5.3633 83.2778
lradius 31.0038
lwrist 15.4601
lhand -30.9808 9.25769
lfingers 7.12502
lthumb -4.2646 39.1947
rfemur 2.0289 -2.01819 14.158
rtibia 2.38542e-015
rfoot -6.88597 -13.2778
rtoes 5.98093
lfemur -11.9358 -6.69879 -12.9494
ltibia 25.9736
lfoot -20.0748 1.52724
ltoes 18.2667
9
root -11.3513 18.0222 -17.3675 -83.3658 87.4709 -86.4656
lowerback 8.59547 0.746941 -0.235043
upperback -1.20087 1.05448 1.26972
thorax -6.11212 0.553136 1.31415
lowerneck -22.0824 -5.59264 -7.93885
upperneck 34.0476 -6.87276 6.40865
head 16.5113 -2.69223 2.84936
rclavicle -8.40642e-015 -8.72168e-015
rhumerus -33.4108 -13.3275 -75.5599
rradius 30.0672
rwrist 23.9694
rhand -17.7426 -14.1278
rfingers 7.12502
rthumb 8.51879 -43.936
lclavicle -8.40642e-015 -8.72168e-015
lhumerus -31.3708 5.38253 83.4208
lradius 31.3717
lwrist 15.4398
lhand -30.9921 9.17502
lfingers 7.12502
lthumb -4.27554 39.1119
rfemur 2.49425 -2.11971 14.0642
rtibia 2.3059e-014
rfoot -6.56304 -13.6803
rtoes 2.40795
lfemur -11.495 -6.97044 -13.1468
ltibia 25.8649
lfoot -20.1915 1.58726
ltoes 18.6674
10
root -11.2998 18.0131 -17.3215 -87.8191 87.6394 -90.7137
lowerback 8.56594 0.696763 -0.165653
upperback -1.20735 0.985405 1.13076
thorax -6.09638 0.513689 1.13955
lowerneck -22.106 -5.54626 -7.96796
upperneck 34.0357 -6.78139 6.38789
head 16.5016 -2.66177 2.86379
rclavicle 1.32429e-014 6.97921e-015
rhumerus -33.4225 -11.5068 -76.454
rradius 29.5661
rwrist 22.6143
rhand -18.0693 -14.4132
rfingers 7.12502
rthumb 8.20346 -44.2339
lclavicle 1.32429e-014 6.97921e-015
lhumerus -31.192 5.6606 83.5282
lradius 31.5527
lwrist 15.2822
lhand -31.0208 9.0694
lfingers 7.12502
lthumb -4.3032 39.0057
rfemur 2.98106 -2.27866 14.0605
rtibia -3.97569e-015
rfoot -6.49573 -14.1065
rtoes -1.14221
lfemur -11.0631 -7.34069 -13.2392
ltibia 25.788
lfoot -20.3229 1.69866
ltoes 19.0059
11
root -11.2507 18.0045 -17.2741 -93.6043 87.6839 -96.2827
lowerback 8.57479 0.623095 -0.0174337
upperback -1.20546 0.897381 1.04442
thorax -6.09353 0.463468 0.977876
lowerneck -22.1322 -5.50539 -8.03843
upperneck 34.0004 -6.69654 6.4061
head 16.4856 -2.6344 2.90044
rclavicle 2.9709e-015 -1.6847e-014
rhumerus -33.4887 -8.91177 -77.6181
rradius 29.2682
rwrist 20.5079
rhand -18.3994 -14.8851
rfingers 7.12502
rthumb 7.88484 -44.7181
lclavicle 2.9709e-015 -1.6847e-014
lhumerus -30.986 6.17686 83.6371
lradius 31.5402
lwrist 15.0306
lhand -31.0598 8.96021
lfingers 7.12502
lthumb -4.34089 38.8957
rfemur 3.45907 -2.47156 14.1534
rtibia -1.98785e-014
rfoot -6.58678 -14.4129
rtoes -3.54795
lfemur -10.6555 -7.75665 -13.212
ltibia 25.7471
lfoot -20.4646 1.83964
ltoes 19.1522
12
root -11.2045 17.9967 -17.2257 -99.3885 87.6234 -101.862
lowerback 8.60358 0.542436 0.163771
upperback -1.20155 0.807787 1.01659
thorax -6.10111 0.412658 0.85887
lowerneck -22.1566 -5.47672 -8.13471
upperneck 33.9471 -6.62194 6.42953
head 16.4627 -2.61441 2.94093
rclavicle 1.32238e-015 -6.64686e-015
rhumerus -33.6053 -6.20776 -78.7886
rradius 29.1026
rwrist 18.3488
rhand -18.614 -15.44
rfingers 7.12502
rthumb 7.67769 -45.2806
lclavicle 1.32238e-015 -6.64686e-015
lhumerus -30.7726 6.82018 83.7991
lradius 31.3655
lwrist 14.7791
lhand -31.098 8.88077
lfingers 7.12502
lthumb -4.37779 38.8155
rfemur 3.89464 -2.67534 14.3233
rtibia -2.38542e-014
rfoot -6.70668 -14.5481
rtoes -4.60393
lfemur -10.288 -8.16534 -13.0874
ltibia 25.7265
lfoot -20.608 1.98012
ltoes 19.1066
